<?xml version="1.0" encoding="utf-8"?>
<!-- Generator: Adobe Illustrator 24.2.0, SVG Export Plug-In . SVG Version: 6.00 Build 0)  -->
<svg version="1.1" id="Layer_1" xmlns="http://www.w3.org/2000/svg" xmlns:xlink="http://www.w3.org/1999/xlink" x="0px" y="0px"
	 viewBox="0 0 964 549.7" enable-background="new 0 0 964 549.7" xml:space="preserve">
<rect width="964" height="549.7"/>
<g>
	<path fill="#FFFFFF" d="M285.5,287.5c0,14.2,8.7,23.8,25,23.8c15.5,0,25.1-9.3,25.1-23.8V249h-9.1v37.8c0,10.4-6.3,16.1-16,16.1
		c-9.8,0-16-5.9-16-16.1V249h-9.1V287.5z"/>
	<path fill="#FFFFFF" d="M341.9,310.4h8.7v-23.3c0-8.5,4.8-14.3,12.2-14.3c6.3,0,9.8,3.6,9.8,11.4v26.2h8.7v-27.1
		c0-11-5.5-18.1-15.3-18.1c-6.6,0-12.1,3.4-14.8,9.1h-0.6l-1.2-8.3h-7.6V310.4z"/>
	<path fill="#FFFFFF" d="M388.3,258.8h8.6v-10.5h-8.6V258.8z M388.3,310.4h8.6v-44.4h-8.6V310.4z"/>
	<path fill="#FFFFFF" d="M401.8,266.1l15.8,44.4h10.5l15.6-44.4h-9.5l-7.1,22.3l-4,13.6h-0.5l-4.1-13.7l-7.1-22.3H401.8z"/>
	<path fill="#FFFFFF" d="M443.9,288.2c0,14.1,7.8,23.1,21,23.1c10.4,0,18.3-5.7,20.1-14.3h-8.6c-1.3,4.4-5.5,7.4-11.4,7.4
		c-7.3,0-12.2-4.7-12.2-11.7v-2.4h31.7c0.2-1.4,0.3-3.4,0.3-4.8c0-12.6-8-20.2-20-20.2C452,265.2,443.9,273.7,443.9,288.2z
		 M452.8,284v-1c0-6.4,4.9-10.8,11.9-10.8c6.8,0,11.3,4.2,11.3,10.4v1.4H452.8z"/>
	<path fill="#FFFFFF" d="M499,266.1c-6.7,0-7.6,4.1-7.6,7.6v36.8h8.7v-37.1h14.3v-7.3H499z"/>
	<path fill="#FFFFFF" d="M525.3,296.9h-8.7c0,8.5,6.9,14.4,18.5,14.4c10.8,0,18.1-5.1,18.1-13.8c0-6-3.3-10.7-11.9-12.2l-8.4-1.5
		c-2.3-0.3-6.7-1.1-6.7-5.7c0-3.8,2.9-6.2,8.4-6.2c5.1,0,8.6,2.2,8.7,7.1h8.6c-0.1-8.1-6.5-13.7-17.3-13.7c-10.3,0-17.1,5-17.1,13.6
		c0,5.8,3.4,10.4,12.1,12l9,1.7c1.8,0.3,5.6,1.2,5.6,5.6c0,4.1-3.4,6.7-9.1,6.7C529.1,304.7,525.3,301.7,525.3,296.9z"/>
	<path fill="#FFFFFF" d="M557.4,288.2c0,14.1,7.8,23.1,21,23.1c10.4,0,18.3-5.7,20.1-14.3h-8.6c-1.3,4.4-5.5,7.4-11.4,7.4
		c-7.3,0-12.2-4.7-12.2-11.7v-2.4H598c0.2-1.4,0.3-3.4,0.3-4.8c0-12.6-8-20.2-20-20.2C565.6,265.2,557.4,273.7,557.4,288.2z
		 M566.3,284v-1c0-6.4,4.9-10.8,11.9-10.8c6.8,0,11.3,4.2,11.3,10.4v1.4H566.3z"/>
	<path fill="#FFFFFF" d="M557.4,288.2c0,14.1,7.8,23.1,21,23.1c10.4,0,18.3-5.7,20.1-14.3h-8.6c-1.3,4.4-5.5,7.4-11.4,7.4
		c-7.3,0-12.2-4.7-12.2-11.7v-2.4H598c0.2-1.4,0.3-3.4,0.3-4.8c0-12.6-8-20.2-20-20.2C565.6,265.2,557.4,273.7,557.4,288.2z
		 M566.3,284v-1c0-6.4,4.9-10.8,11.9-10.8c6.8,0,11.3,4.2,11.3,10.4v1.4H566.3z"/>
	<path fill-rule="evenodd" clip-rule="evenodd" fill="#FFFFFF" d="M228.3,230.4c-25.7,0-46.5,20.4-46.5,45.6
		c0,20.2,13.3,37.2,31.8,43.3c2.3,0.4,3.2-1,3.2-2.2c0-1.1-0.1-4.7-0.1-8.5c-11.7,2.1-14.7-2.8-15.6-5.4c-0.5-1.3-2.8-5.4-4.8-6.4
		c-1.6-0.9-4-3-0.1-3c3.7-0.1,6.3,3.3,7.1,4.7c4.2,6.9,10.9,5,13.5,3.8c0.4-3,1.6-5,3-6.1c-10.3-1.1-21.2-5.1-21.2-22.5
		c0-5,1.8-9.1,4.8-12.3c-0.5-1.1-2.1-5.8,0.5-12.1c0,0,3.9-1.2,12.8,4.7c3.7-1,7.7-1.5,11.6-1.5s7.9,0.5,11.6,1.5
		c8.9-5.9,12.8-4.7,12.8-4.7c2.6,6.3,0.9,11,0.5,12.1c3,3.2,4.8,7.2,4.8,12.3c0,17.5-10.9,21.4-21.2,22.5c1.7,1.4,3.1,4.2,3.1,8.4
		c0,6.1-0.1,11-0.1,12.5c0,1.2,0.9,2.6,3.2,2.2c18.4-6,31.7-23.2,31.7-43.3C274.8,250.8,253.9,230.4,228.3,230.4z"/>
	<path fill-rule="evenodd" clip-rule="evenodd" fill="#FFFFFF" d="M628.4,279.9l-24.6,26v4.4h39V305h-21.8c-2.8,0-6,0.1-8.8,0.2
		l20.2-21.5l0,0c0.2-0.3,0.5-0.5,0.7-0.8c3.4-3.6,8.2-8.7,8.2-17.1c0-5.3-2-9.7-5.4-12.8c-3.4-3.1-8.2-4.8-13.9-4.8
		c-5.9,0-10.8,1.9-14.2,5.3c-3.4,3.4-5.3,8.4-5.3,14.4l0,0.2h5.7v-1.6c0-3.9,1.3-7.1,3.7-9.4c2.3-2.3,5.7-3.6,9.8-3.6
		c3.4,0,6.7,1,9.2,2.8c2.4,1.8,4,4.4,4,7.7v3.8C635.2,271.1,633.6,274.4,628.4,279.9z M653.9,303.4c-3.4-5.2-5-13.1-5-23.8
		c0-10.7,1.6-18.6,5-23.8c3.4-5.2,8.5-7.7,15.5-7.7c6.9,0,12.1,2.5,15.4,7.7c3.4,5.2,5,13.1,5,23.8c0,10.7-1.6,18.6-5,23.8
		c-3.4,5.2-8.5,7.7-15.4,7.7C662.4,311.2,657.3,308.7,653.9,303.4z M655.3,270.6v18.1c0,5.8,1.5,10.1,4,12.9c2.5,2.8,5.9,4.2,10,4.2
		c4,0,7.5-1.4,10-4.2c2.5-2.8,4-7.1,4-12.9v-18.1c0-5.8-1.5-10.1-4-12.9c-2.5-2.8-6-4.2-10-4.2c-4,0-7.5,1.4-10,4.2
		C656.8,260.5,655.3,264.8,655.3,270.6z"/>
	<path fill-rule="evenodd" clip-rule="evenodd" fill="#FFFFFF" d="M720.9,279.9l-24.6,26v4.4h39V305h-21.8c-2.8,0-6,0.1-8.8,0.2
		l20.2-21.5v0c0.2-0.3,0.5-0.5,0.7-0.8c3.4-3.6,8.2-8.7,8.2-17.1c0-5.3-2-9.7-5.4-12.8c-3.4-3.1-8.2-4.8-13.9-4.8
		c-5.9,0-10.8,1.9-14.2,5.3c-3.4,3.4-5.3,8.4-5.3,14.4l0,0.2h5.7v-1.6c0-3.9,1.3-7.1,3.7-9.4c2.3-2.3,5.7-3.6,9.8-3.6
		c3.4,0,6.7,1,9.2,2.8c2.5,1.8,4,4.4,4,7.7v3.8C727.7,271.1,726.1,274.4,720.9,279.9z M746.4,303.4c-3.4-5.2-5-13.1-5-23.8
		c0-10.7,1.6-18.6,5-23.8c3.4-5.2,8.5-7.7,15.5-7.7c6.9,0,12.1,2.5,15.4,7.7c3.4,5.2,5,13.1,5,23.8c0,10.7-1.6,18.6-5,23.8
		c-3.4,5.2-8.5,7.7-15.4,7.7C754.9,311.2,749.8,308.7,746.4,303.4z M747.8,270.6v18.1c0,5.8,1.5,10.1,4,12.9c2.5,2.8,5.9,4.2,10,4.2
		c4,0,7.5-1.4,10-4.2c2.5-2.8,4-7.1,4-12.9v-18.1c0-5.8-1.5-10.1-4-12.9c-2.5-2.8-6-4.2-10-4.2c-4,0-7.5,1.4-10,4.2
		C749.3,260.5,747.8,264.8,747.8,270.6z"/>
</g>
</svg>
